<?xml version="1.0" encoding="utf-8"?>
<!-- Generator: Adobe Illustrator 26.3.0, SVG Export Plug-In . SVG Version: 6.00 Build 0)  -->
<svg version="1.1" id="Layer_1" xmlns="http://www.w3.org/2000/svg" xmlns:xlink="http://www.w3.org/1999/xlink" x="0px" y="0px"
	 viewBox="0 0 434.1 119.1" style="enable-background:new 0 0 434.1 119.1;" xml:space="preserve">
<style type="text/css">
	.st0{fill:#FFFFFF;}
	.st1{fill:#5CE1E6;}
	.st2{fill:#FFFFFF;stroke:#FFFFFF;stroke-miterlimit:10;}
	.st3{fill:#5CE1E6;stroke:#5CE1E6;stroke-miterlimit:10;}
</style>
<path class="st0" d="M400.7,194.5v28.6h-5.8v-12.5h-12.3v12.5h-5.7v-28.6h5.7v11.6h12.3v-11.6H400.7z M416.2,200.4
	c2.2,0,4.2,0.5,5.9,1.4c1.8,0.9,3.1,2.3,4.1,4c1,1.7,1.5,3.8,1.5,6.1c0,2.4-0.5,4.4-1.5,6.1c-1,1.7-2.4,3.1-4.1,4
	c-1.7,0.9-3.7,1.4-5.9,1.4c-2.2,0-4.2-0.5-5.9-1.4c-1.7-0.9-3.1-2.3-4.1-4c-1-1.7-1.5-3.8-1.5-6.1c0-2.4,0.5-4.4,1.5-6.1
	c1-1.8,2.4-3.1,4.1-4C412.1,200.8,414,200.4,416.2,200.4z M416.2,205.3c-1.6,0-2.9,0.6-4.1,1.7c-1.1,1.1-1.7,2.7-1.7,4.9
	c0,2.1,0.6,3.8,1.7,4.9c1.1,1.1,2.5,1.7,4.1,1.7c1.6,0,2.9-0.6,4.1-1.7c1.1-1.1,1.7-2.8,1.7-4.9c0-2.1-0.6-3.8-1.7-4.9
	C419.2,205.9,417.8,205.3,416.2,205.3z M442.2,200.4c2.2,0,4.2,0.5,5.9,1.4c1.8,0.9,3.1,2.3,4.1,4c1,1.7,1.5,3.8,1.5,6.1
	c0,2.4-0.5,4.4-1.5,6.1c-1,1.7-2.4,3.1-4.1,4c-1.7,0.9-3.7,1.4-5.9,1.4s-4.2-0.5-5.9-1.4c-1.7-0.9-3.1-2.3-4.1-4
	c-1-1.7-1.5-3.8-1.5-6.1c0-2.4,0.5-4.4,1.5-6.1c1-1.8,2.4-3.1,4.1-4C438,200.8,440,200.4,442.2,200.4z M442.2,205.3
	c-1.6,0-2.9,0.6-4.1,1.7c-1.1,1.1-1.7,2.7-1.7,4.9c0,2.1,0.6,3.8,1.7,4.9c1.1,1.1,2.5,1.7,4.1,1.7s2.9-0.6,4.1-1.7
	c1.1-1.1,1.7-2.8,1.7-4.9c0-2.1-0.6-3.8-1.7-4.9C445.1,205.9,443.8,205.3,442.2,205.3z"/>
<path class="st1" d="M473.7,208.4c1.7,0.4,3.1,1.2,4.1,2.5c1.1,1.3,1.6,2.8,1.6,4.5c0,2.4-0.8,4.3-2.4,5.7c-1.6,1.4-3.9,2.1-7,2.1
	h-12.3v-28.6h12.1c2.9,0,5.1,0.6,6.7,1.9c1.6,1.3,2.4,3.1,2.4,5.4c0,1.8-0.5,3.2-1.4,4.4C476.5,207.3,475.3,208,473.7,208.4z
	 M463.5,206.5h5.2c1.4,0,2.5-0.3,3.2-0.9c0.8-0.6,1.1-1.6,1.1-2.8c0-1.2-0.4-2.1-1.1-2.8c-0.7-0.6-1.9-1-3.4-1h-5.1V206.5z
	 M468.9,218.5c1.5,0,2.7-0.3,3.5-1c0.8-0.7,1.2-1.7,1.2-2.9c0-1.3-0.4-2.2-1.3-2.9c-0.8-0.7-2-1.1-3.5-1.1h-5.4v7.9H468.9z
	 M492.3,200.4c1.9,0,3.5,0.4,4.9,1.3c1.4,0.9,2.3,2.1,2.9,3.6v-4.7h5.7v22.5H500v-4.7c-0.6,1.5-1.5,2.7-2.9,3.7
	c-1.4,0.9-3,1.3-4.9,1.3c-1.9,0-3.6-0.5-5.1-1.4c-1.5-0.9-2.7-2.2-3.6-4c-0.8-1.8-1.3-3.8-1.3-6.2c0-2.4,0.4-4.4,1.3-6.1
	c0.9-1.8,2.1-3.1,3.6-4C488.7,200.8,490.4,200.4,492.3,200.4z M494.1,205.4c-1.8,0-3.2,0.6-4.3,1.7c-1.1,1.2-1.6,2.8-1.6,4.8
	c0,2,0.5,3.6,1.6,4.8c1.1,1.1,2.5,1.7,4.3,1.7c1.7,0,3.2-0.6,4.3-1.7c1.1-1.2,1.7-2.8,1.7-4.7c0-2-0.6-3.6-1.7-4.7
	C497.2,206,495.8,205.4,494.1,205.4z M524.3,200.3c2.6,0,4.7,0.9,6.2,2.6c1.5,1.7,2.3,4.1,2.3,7.2v13.1h-5.7v-12.4
	c0-1.8-0.5-3.2-1.4-4.1c-0.9-1-2.2-1.5-3.8-1.5c-1.6,0-2.9,0.5-3.9,1.6c-1,1.1-1.5,2.6-1.5,4.5v11.9h-5.7v-22.5h5.7v4.5
	c0.6-1.5,1.6-2.7,2.9-3.5C520.9,200.8,522.5,200.3,524.3,200.3z M551,223.1l-7.4-9.8v9.8h-5.7v-30h5.7V210l7.4-9.3h6.8l-9.5,11.2
	l9.7,11.3H551z"/>
<g>
	<path class="st0" d="M58.9,13.2c-9.2,0-18.2,2.7-25.8,7.8S19.5,33.3,16,41.8c-3.5,8.5-4.4,17.8-2.6,26.8c1.8,9,6.2,17.3,12.7,23.8
		c6.5,6.5,14.8,10.9,23.8,12.7c9,1.8,18.3,0.9,26.8-2.6c8.5-3.5,15.7-9.5,20.8-17.1c5.1-7.6,7.8-16.6,7.8-25.8H82.1
		c0,4.6-1.4,9.1-3.9,12.9c-2.5,3.8-6.2,6.8-10.4,8.5c-4.2,1.8-8.9,2.2-13.4,1.3c-4.5-0.9-8.6-3.1-11.9-6.4
		c-3.2-3.2-5.5-7.4-6.4-11.9c-0.9-4.5-0.4-9.2,1.3-13.4c1.8-4.2,4.7-7.9,8.5-10.4c3.8-2.5,8.3-3.9,12.9-3.9V13.2z"/>
	<path class="st1" d="M58.9,13.2c-6.1,0-12.1,1.2-17.8,3.5c-5.6,2.3-10.7,5.8-15.1,10.1c-4.3,4.3-7.7,9.4-10.1,15.1
		c-2.3,5.6-3.5,11.7-3.5,17.8h23.2c0-3,0.6-6.1,1.8-8.9c1.2-2.8,2.9-5.4,5-7.5c2.2-2.2,4.7-3.9,7.5-5c2.8-1.2,5.8-1.8,8.9-1.8V13.2z
		"/>
	<circle class="st1" cx="58.9" cy="59.6" r="14.5"/>
	<path class="st0" d="M73.4,59.6c0-1.9-0.4-3.8-1.1-5.5c-0.7-1.8-1.8-3.4-3.1-4.7c-1.3-1.3-2.9-2.4-4.7-3.1
		c-1.8-0.7-3.6-1.1-5.5-1.1c-1.9,0-3.8,0.4-5.5,1.1c-1.8,0.7-3.4,1.8-4.7,3.1c-1.3,1.3-2.4,2.9-3.1,4.7s-1.1,3.6-1.1,5.5h14.5H73.4z
		"/>
</g>
<g>
	<path class="st2" d="M158.9,78.3l-0.1-22.6l-11.1,18.6h-3.9l-11-18.1v22.1h-8.2V40.7h7.2l14.1,23.4l13.9-23.4h7.1l0.1,37.6H158.9z"
		/>
	<path class="st2" d="M180.9,76.9c-2.4-1.3-4.3-3-5.7-5.3c-1.4-2.3-2-4.8-2-7.7c0-2.9,0.7-5.4,2-7.7c1.4-2.3,3.3-4,5.7-5.3
		c2.4-1.3,5.1-1.9,8.2-1.9c3,0,5.8,0.6,8.2,1.9c2.4,1.3,4.3,3,5.6,5.3c1.4,2.3,2,4.8,2,7.7c0,2.9-0.7,5.4-2,7.7
		c-1.4,2.3-3.2,4-5.6,5.3c-2.4,1.3-5.1,1.9-8.2,1.9C186.1,78.8,183.4,78.1,180.9,76.9z M194.4,69.7c1.4-1.5,2.1-3.4,2.1-5.8
		c0-2.4-0.7-4.4-2.1-5.8c-1.4-1.5-3.1-2.2-5.3-2.2c-2.1,0-3.9,0.7-5.3,2.2c-1.4,1.5-2.1,3.4-2.1,5.8c0,2.4,0.7,4.4,2.1,5.8
		c1.4,1.5,3.2,2.2,5.3,2.2C191.3,71.9,193,71.2,194.4,69.7z"/>
	<path class="st2" d="M236.8,52.2c2.2,2.1,3.3,5.3,3.3,9.6v16.6h-8.4V63.1c0-2.3-0.5-4-1.5-5.1c-1-1.1-2.5-1.7-4.4-1.7
		c-2.1,0-3.8,0.7-5.1,2c-1.3,1.3-1.9,3.3-1.9,5.8v14.3h-8.4V49.4h8v3.4c1.1-1.2,2.5-2.2,4.1-2.8c1.6-0.7,3.5-1,5.4-1
		C231.7,49,234.6,50.1,236.8,52.2z"/>
	<path class="st2" d="M276.2,66.2h-21.9c0.4,1.8,1.3,3.2,2.8,4.2c1.5,1,3.3,1.6,5.5,1.6c1.5,0,2.8-0.2,4-0.7
		c1.2-0.4,2.2-1.2,3.3-2.1l4.5,4.8c-2.7,3.1-6.7,4.7-11.9,4.7c-3.3,0-6.1-0.6-8.7-1.9c-2.5-1.3-4.4-3-5.8-5.3c-1.4-2.3-2-4.8-2-7.7
		c0-2.8,0.7-5.4,2-7.7c1.3-2.3,3.2-4,5.5-5.3c2.3-1.3,5-1.9,7.9-1.9c2.8,0,5.4,0.6,7.7,1.8c2.3,1.2,4.1,3,5.4,5.2
		c1.3,2.3,2,4.9,2,7.9C276.3,64.1,276.3,64.8,276.2,66.2z M256.6,56.9c-1.3,1.1-2.1,2.5-2.4,4.4h14.2c-0.3-1.8-1.1-3.3-2.4-4.4
		c-1.3-1.1-2.9-1.6-4.7-1.6C259.5,55.3,257.9,55.9,256.6,56.9z"/>
	<path class="st2" d="M310.1,49.4L297,80.1c-1.3,3.3-3,5.7-4.9,7c-2,1.4-4.3,2-7.1,2c-1.5,0-3-0.2-4.5-0.7c-1.5-0.5-2.7-1.1-3.6-1.9
		l3.1-6c0.6,0.6,1.4,1,2.2,1.3c0.8,0.3,1.7,0.5,2.5,0.5c1.1,0,2.1-0.3,2.8-0.8c0.7-0.6,1.4-1.5,1.9-2.8l0.1-0.3l-12.5-29.1h8.7
		l8.1,19.6l8.2-19.6H310.1z"/>
</g>
<g>
	<path class="st3" d="M347.6,62.2c1.2,1.6,1.8,3.6,1.8,5.9c0,3.3-1.3,5.8-3.8,7.6s-6.3,2.7-11.2,2.7H315V40.7h18.4
		c4.6,0,8.1,0.9,10.6,2.6c2.5,1.8,3.7,4.1,3.7,7.1c0,1.8-0.4,3.5-1.3,4.9c-0.9,1.4-2.1,2.6-3.7,3.4
		C344.7,59.4,346.4,60.6,347.6,62.2z M323.6,47.3v8.9h8.7c2.1,0,3.8-0.4,4.9-1.1c1.1-0.8,1.7-1.9,1.7-3.3c0-1.5-0.6-2.6-1.7-3.3
		c-1.1-0.7-2.7-1.1-4.9-1.1H323.6z M338.9,70.6c1.2-0.8,1.7-1.9,1.7-3.5c0-3.1-2.3-4.7-6.9-4.7h-10.2v9.3h10.2
		C336.1,71.8,337.8,71.4,338.9,70.6z"/>
	<path class="st3" d="M377.5,52.2c2.4,2.1,3.6,5.3,3.6,9.6v16.5h-7.8v-3.6c-1.6,2.7-4.5,4-8.8,4c-2.2,0-4.1-0.4-5.8-1.1
		c-1.6-0.8-2.9-1.8-3.7-3.1c-0.9-1.3-1.3-2.8-1.3-4.5c0-2.7,1-4.8,3-6.3c2-1.5,5.1-2.3,9.4-2.3h6.7c0-1.8-0.6-3.2-1.7-4.2
		s-2.8-1.5-5-1.5c-1.5,0-3.1,0.2-4.5,0.7c-1.5,0.5-2.8,1.1-3.8,2l-3-5.9c1.6-1.1,3.5-2,5.7-2.6c2.2-0.6,4.5-0.9,6.8-0.9
		C371.6,49,375.1,50.1,377.5,52.2z M370.3,72.1c1.1-0.7,1.9-1.6,2.4-2.9v-3h-5.8c-3.4,0-5.2,1.1-5.2,3.4c0,1.1,0.4,1.9,1.3,2.6
		c0.8,0.6,2,0.9,3.5,0.9C367.9,73.1,369.2,72.8,370.3,72.1z"/>
	<path class="st3" d="M418.8,49.4v24.1c0,5.3-1.4,9.2-4.1,11.8c-2.8,2.6-6.8,3.9-12.1,3.9c-2.8,0-5.4-0.3-8-1
		c-2.5-0.7-4.6-1.7-6.2-3l3.3-6c1.2,1,2.8,1.8,4.6,2.4c1.9,0.6,3.7,0.9,5.6,0.9c2.9,0,5-0.7,6.4-2c1.4-1.3,2.1-3.3,2.1-5.9v-1.2
		c-2.2,2.4-5.2,3.6-9.1,3.6c-2.7,0-5.1-0.6-7.3-1.7s-3.9-2.8-5.2-4.9c-1.3-2.1-1.9-4.5-1.9-7.3c0-2.8,0.6-5.2,1.9-7.3
		c1.3-2.1,3-3.8,5.2-4.9c2.2-1.2,4.6-1.7,7.3-1.7c4.2,0,7.4,1.4,9.6,4.1v-3.7H418.8z M408.4,68.1c1.4-1.3,2.1-3,2.1-5.1
		c0-2.1-0.7-3.8-2.1-5.1c-1.4-1.3-3.2-2-5.5-2s-4,0.7-5.5,2c-1.4,1.3-2.2,3-2.2,5.1c0,2.1,0.7,3.8,2.2,5.1c1.4,1.3,3.3,2,5.5,2
		S407,69.4,408.4,68.1z"/>
</g>
</svg>
