<?xml version="1.0" encoding="UTF-8"?><svg id="Layer_2" xmlns="http://www.w3.org/2000/svg" viewBox="0 0 92.81 92.81"><defs><style>.cls-1{fill:#fff;}.cls-2{fill:#5ce1e6;}</style></defs><g id="Layer_1-2"><g><path class="cls-1" d="M46.41,0c-9.18,0-18.15,2.72-25.78,7.82C12.99,12.92,7.04,20.17,3.53,28.65,.02,37.13-.9,46.46,.89,55.46c1.79,9,6.21,17.27,12.7,23.76,6.49,6.49,14.76,10.91,23.76,12.7,9,1.79,18.33,.87,26.81-2.64,8.48-3.51,15.73-9.46,20.83-17.09,5.1-7.63,7.82-16.6,7.82-25.78h-23.2c0,4.59-1.36,9.08-3.91,12.89-2.55,3.82-6.17,6.79-10.41,8.55-4.24,1.76-8.91,2.22-13.41,1.32-4.5-.9-8.64-3.11-11.88-6.35-3.25-3.25-5.45-7.38-6.35-11.88-.9-4.5-.44-9.17,1.32-13.41,1.76-4.24,4.73-7.86,8.55-10.41,3.82-2.55,8.3-3.91,12.89-3.91V0Z"/><path class="cls-2" d="M46.41,0c-6.09,0-12.13,1.2-17.76,3.53-5.63,2.33-10.75,5.75-15.06,10.06-4.31,4.31-7.73,9.43-10.06,15.06C1.2,34.28,0,40.31,0,46.41H23.2c0-3.05,.6-6.06,1.77-8.88,1.17-2.82,2.88-5.37,5.03-7.53,2.15-2.15,4.71-3.86,7.53-5.03,2.82-1.17,5.83-1.77,8.88-1.77V0Z"/><circle class="cls-2" cx="46.41" cy="46.41" r="14.5"/><path class="cls-1" d="M60.91,46.41c0-1.9-.38-3.79-1.1-5.55-.73-1.76-1.8-3.36-3.14-4.7-1.35-1.35-2.95-2.41-4.7-3.14s-3.65-1.1-5.55-1.1-3.79,.38-5.55,1.1c-1.76,.73-3.36,1.8-4.7,3.14-1.35,1.35-2.41,2.95-3.14,4.7-.73,1.76-1.1,3.65-1.1,5.55h29Z"/></g></g></svg>